<svg width="32" height="32" viewBox="0 0 32 32" fill="none" xmlns="http://www.w3.org/2000/svg">
<path d="M2.875 24.5H11.149C16.4597 24.5 18.3018 17.4568 13.6072 14.9298C16.7583 12.1835 14.8077 7 10.5797 7H2.875C2.392 7 2 7.392 2 7.875V23.625C2 24.108 2.392 24.5 2.875 24.5ZM3.75 8.75H10.5797C14.3258 8.75 14.3305 14.3127 10.5797 14.3127H3.75V8.75ZM3.75 16.0627H11.149C15.6535 16.0627 15.6535 22.75 11.149 22.75H3.75V16.0627Z" fill="#A9A9A9"/>
<path d="M23.4366 11.4998C19.6344 11.4998 16.7224 14.8692 16.8624 17.5187C16.5743 21.3453 19.6589 24.5 23.4366 24.5C25.7839 24.5 27.9726 23.2575 29.1474 21.2555C29.7343 20.2557 28.2246 19.3737 27.6389 20.3688C26.7768 21.8377 25.1656 22.75 23.4366 22.75C20.8851 22.75 18.8108 20.804 18.6241 18.3505C20.3076 18.3703 23.4494 18.1312 29.1089 18.312C29.1276 18.312 29.1404 18.3027 29.1579 18.3027C31.4913 18.1977 28.9374 11.4998 23.4366 11.4998ZM18.8539 16.5142C20.3543 12.0937 26.6916 12.2255 28.0589 16.5888C23.3176 16.702 20.4803 16.5118 18.8539 16.5142Z" fill="#A9A9A9"/>
<path d="M26.8594 9.87463C28.0179 9.87463 28.0167 8.12463 26.8594 8.12463H20.011C18.8525 8.12463 18.8537 9.87463 20.011 9.87463H26.8594Z" fill="#A9A9A9"/>
</svg>
