<svg width="29" height="25" viewBox="0 0 29 25" fill="none" xmlns="http://www.w3.org/2000/svg">
<path d="M12.3705 6.83536L5.53516 0L1.99962 3.53553L8.83499 10.3709L12.3705 6.83536Z" fill="white"/>
<path d="M19.2065 13.6707L12.3711 6.83533L8.83556 10.3709L15.6709 17.2062L19.2065 13.6707Z" fill="white"/>
<path d="M26.0404 20.5061L19.2051 13.6708L15.6695 17.2063L22.5049 24.0417L26.0404 20.5061Z" fill="white"/>
<path d="M6.10122 16.4049L2 20.5061L5.53553 24.0416L9.63675 19.9404L6.10122 16.4049Z" fill="white"/>
<path d="M10.2028 12.3037L6.10156 16.4049L9.6371 19.9404L13.7383 15.8392L10.2028 12.3037Z" fill="white"/>
<path d="M14.3043 8.20249L10.2031 12.3037L13.7387 15.8392L17.8399 11.738L14.3043 8.20249Z" fill="white"/>
<path d="M18.404 4.10117L14.3027 8.20239L17.8383 11.7379L21.9395 7.63671L18.404 4.10117Z" fill="white"/>
<path d="M22.5055 -2.34607e-05L18.4043 4.1012L21.9398 7.63673L26.041 3.53551L22.5055 -2.34607e-05Z" fill="white"/>
</svg>
