<?xml version="1.0" encoding="utf-8"?>
<!-- Generator: Adobe Illustrator 22.0.1, SVG Export Plug-In . SVG Version: 6.00 Build 0)  -->
<svg version="1.1" id="Слой_1" xmlns="http://www.w3.org/2000/svg" xmlns:xlink="http://www.w3.org/1999/xlink" x="0px" y="0px"
	 viewBox="0 0 87 23" style="enable-background:new 0 0 87 23;" xml:space="preserve">
<style type="text/css">
	.st0{fill:#FFFFFF;}
</style>
<path class="st0" d="M13.6,0v17.5H8.9v-0.9c-0.7,0.8-1.8,1.1-3.2,1.1c-3.1,0-5.7-2.2-5.7-5.8c0-3.6,2.6-5.8,5.7-5.8
	c1.3,0,2.3,0.3,3,1V0H13.6z M8.8,11.9c0-1.4-0.8-2.2-1.9-2.2s-1.9,0.7-1.9,2.2s0.8,2.2,1.9,2.2S8.8,13.3,8.8,11.9z"/>
<path class="st0" d="M28.6,13h-8.2c0.3,0.9,1.2,1.3,2.4,1.3c0.9,0,1.8-0.3,2.5-0.8l2.5,2.4c-1.1,1.2-2.8,1.8-5.1,1.8
	c-4.3,0-7.1-2.5-7.1-5.8c0-3.4,2.9-5.8,6.7-5.8c3.5,0,6.5,2,6.5,5.8C28.7,12.2,28.7,12.7,28.6,13z M20.4,10.7h3.8
	c-0.1-0.4-0.3-0.8-0.7-1.1c-0.3-0.3-0.8-0.4-1.2-0.4S21.4,9.4,21,9.7C20.7,9.9,20.4,10.3,20.4,10.7z"/>
<path class="st0" d="M43.6,6.3l-4.7,11.1h-5L29,6.3h5l2.4,6l2.5-6H43.6z"/>
<path class="st0" d="M56.9,13h-8.2c0.3,0.9,1.2,1.3,2.4,1.3c0.9,0,1.8-0.3,2.5-0.8l2.5,2.4c-1.1,1.2-2.8,1.8-5.2,1.8
	c-4.3,0-7.1-2.5-7.1-5.8c0-3.4,2.9-5.8,6.7-5.8c3.5,0,6.5,2,6.5,5.8C57,12.2,57,12.7,56.9,13z M48.7,10.7h3.8
	c-0.1-0.4-0.3-0.8-0.7-1.1c-0.3-0.3-0.8-0.4-1.2-0.4c-0.5,0-0.9,0.1-1.2,0.4C49,9.9,48.7,10.3,48.7,10.7z"/>
<path class="st0" d="M59,0h4.9v17.5H59V0z"/>
<path class="st0" d="M66.4,6.3h4.9v11.1h-4.9V6.3z"/>
<path class="st0" d="M73.3,11.9c0-3.4,2.9-5.8,6.9-5.8c4,0,6.9,2.4,6.9,5.8c0,3.4-2.8,5.8-6.9,5.8S73.3,15.3,73.3,11.9z M82,11.9
	c0-1.4-0.8-2.2-1.9-2.2c-1.1,0-1.9,0.7-1.9,2.2s0.8,2.2,1.9,2.2C81.2,14.1,82,13.3,82,11.9L82,11.9z"/>
<path class="st0" d="M71.3,0h-4.9v4.6h4.9V0z"/>
</svg>
