<svg width="32" height="32" viewBox="0 0 32 32" fill="none" xmlns="http://www.w3.org/2000/svg">
<path d="M17.8356 30H13.3429C12.5925 30 11.982 29.3907 11.982 28.6418V18.528H9.36087C8.61045 18.528 8 17.9185 8 17.1698V12.836C8 12.0871 8.61045 11.4778 9.36087 11.4778H11.982V9.30762C11.982 7.15579 12.659 5.32504 13.9396 4.01361C15.226 2.6962 17.0238 2 19.1385 2L22.5649 2.00555C23.314 2.00684 23.9234 2.61609 23.9234 3.36377V7.38757C23.9234 8.13654 23.3131 8.74579 22.5629 8.74579L20.256 8.74664C19.5524 8.74664 19.3733 8.88742 19.335 8.93057C19.2718 9.00214 19.1967 9.20444 19.1967 9.76306V11.4776H22.3896C22.6299 11.4776 22.8628 11.5368 23.0629 11.6483C23.4947 11.889 23.7631 12.3443 23.7631 12.8362L23.7613 17.17C23.7613 17.9185 23.1509 18.5278 22.4005 18.5278H19.1967V28.6418C19.1967 29.3907 18.586 30 17.8356 30ZM13.6267 28.3585H17.5518V17.7932C17.5518 17.2931 17.9595 16.8863 18.4604 16.8863H22.1167L22.1182 13.1193H18.4602C17.9593 13.1193 17.5518 12.7126 17.5518 12.2125V9.76306C17.5518 9.12177 17.6171 8.39246 18.1021 7.8443C18.6881 7.18164 19.6117 7.10516 20.2556 7.10516L22.2787 7.10431V3.64661L19.1372 3.64148C15.7387 3.64148 13.6267 5.81274 13.6267 9.30762V12.2125C13.6267 12.7123 13.2192 13.1193 12.7183 13.1193H9.64469V16.8863H12.7183C13.2192 16.8863 13.6267 17.2931 13.6267 17.7932V28.3585ZM22.5616 3.64703H22.5619H22.5616Z" fill="#A9A9A9"/>
</svg>
