<svg width="32" height="32" viewBox="0 0 32 32" fill="none" xmlns="http://www.w3.org/2000/svg">
<path d="M16.2756 29.9999C16.1829 29.9999 16.0901 29.9999 15.9968 29.9995C13.802 30.0048 11.7741 29.9491 9.80194 29.829C7.99384 29.719 6.34338 29.0942 5.02875 28.0222C3.76025 26.9878 2.89401 25.5892 2.45416 23.8657C2.07135 22.3652 2.05106 20.8923 2.03162 19.4677C2.01752 18.4455 2.00299 17.2342 2 16.0025C2.00299 14.7656 2.01752 13.5544 2.03162 12.5322C2.05106 11.1077 2.07135 9.63481 2.45416 8.13411C2.89401 6.4106 3.76025 5.01201 5.02875 3.97764C6.34338 2.90568 7.99384 2.28084 9.80215 2.17082C11.7743 2.05098 13.8027 1.99501 16.0021 2.00035C18.1975 1.99565 20.2248 2.05098 22.197 2.17082C24.0051 2.28084 25.6555 2.90568 26.9702 3.97764C28.2389 5.01201 29.1049 6.4106 29.5448 8.13411C29.9276 9.6346 29.9479 11.1077 29.9673 12.5322C29.9814 13.5544 29.9962 14.7656 29.9989 15.9974V16.0025C29.9962 17.2342 29.9814 18.4455 29.9673 19.4677C29.9479 20.8921 29.9278 22.365 29.5448 23.8657C29.1049 25.5892 28.2389 26.9878 26.9702 28.0222C25.6555 29.0942 24.0051 29.719 22.197 29.829C20.3083 29.944 18.3682 29.9999 16.2756 29.9999ZM15.9968 27.812C18.1559 27.8171 20.1383 27.7626 22.0641 27.6456C23.4313 27.5625 24.6167 27.1188 25.5878 26.3269C26.4855 25.5948 27.1037 24.5848 27.4252 23.3248C27.7439 22.0758 27.7623 20.7347 27.78 19.4378C27.7939 18.4224 27.8084 17.2197 27.8114 15.9999C27.8084 14.7799 27.7939 13.5774 27.78 12.5621C27.7623 11.2652 27.7439 9.92406 27.4252 8.67479C27.1037 7.41484 26.4855 6.40483 25.5878 5.67274C24.6167 4.88106 23.4313 4.43736 22.0641 4.35426C20.1383 4.23698 18.1559 4.18294 16.0019 4.18764C13.8433 4.18251 11.8606 4.23698 9.93481 4.35426C8.56763 4.43736 7.38223 4.88106 6.4111 5.67274C5.51346 6.40483 4.89523 7.41484 4.57373 8.67479C4.255 9.92406 4.23663 11.265 4.2189 12.5621C4.20502 13.5783 4.19049 14.7816 4.1875 16.0025C4.19049 17.218 4.20502 18.4216 4.2189 19.4378C4.23663 20.7347 4.255 22.0758 4.57373 23.3248C4.89523 24.5848 5.51346 25.5948 6.4111 26.3269C7.38223 27.1186 8.56763 27.5623 9.93481 27.6454C11.8606 27.7626 13.8437 27.8173 15.9968 27.812ZM15.9447 22.8359C12.1755 22.8359 9.10873 19.7693 9.10873 15.9999C9.10873 12.2305 12.1755 9.16398 15.9447 9.16398C19.7141 9.16398 22.7806 12.2305 22.7806 15.9999C22.7806 19.7693 19.7141 22.8359 15.9447 22.8359ZM15.9447 11.3515C13.3816 11.3515 11.2962 13.4369 11.2962 15.9999C11.2962 18.563 13.3816 20.6484 15.9447 20.6484C18.5079 20.6484 20.5931 18.563 20.5931 15.9999C20.5931 13.4369 18.5079 11.3515 15.9447 11.3515ZM23.5462 6.97648C22.6403 6.97648 21.9056 7.71092 21.9056 8.61711C21.9056 9.5233 22.6403 10.2577 23.5462 10.2577C24.4524 10.2577 25.1869 9.5233 25.1869 8.61711C25.1869 7.71092 24.4524 6.97648 23.5462 6.97648Z" fill="#A9A9A9"/>
</svg>
