<svg width="75" height="16" viewBox="0 0 75 16" fill="none" xmlns="http://www.w3.org/2000/svg">
<g clip-path="url(#clip0)">
<path d="M9.17015 0V12.161H6.03159V11.5226C5.54942 12.046 4.84835 12.3019 3.84555 12.3019C1.77487 12.3019 0 10.7721 0 8.27606C0 5.78001 1.77487 4.27318 3.84555 4.27318C4.71819 4.27318 5.38968 4.48598 5.8689 4.94033V0H9.17015ZM5.91623 8.28181C5.91623 7.27534 5.34827 6.76636 4.62057 6.76636C3.89288 6.76636 3.32492 7.27534 3.32492 8.28181C3.32492 9.28828 3.89288 9.80877 4.62057 9.80877C5.34827 9.80877 5.91623 9.28541 5.91623 8.28181Z" fill="#C4C4C4"/>
<path d="M19.3458 9.03233H13.8112C14.0449 9.62471 14.598 9.93816 15.4145 9.93816C16.0222 9.95485 16.6142 9.74966 17.074 9.36303L18.7927 11.0481C18.0206 11.8677 16.8995 12.2933 15.3139 12.2933C12.3854 12.2933 10.4922 10.5679 10.4922 8.26742C10.4922 5.91515 12.4298 4.25879 15.0063 4.25879C17.3728 4.25879 19.3902 5.64772 19.3902 8.26742C19.3902 8.50609 19.3606 8.80516 19.3458 9.03233ZM13.755 7.47662H16.3167C16.2625 7.18475 16.1046 6.92067 15.8704 6.7305C15.6363 6.54032 15.3409 6.43614 15.0358 6.43614C14.7308 6.43614 14.4354 6.54032 14.2013 6.7305C13.9671 6.92067 13.8092 7.18475 13.755 7.47662Z" fill="#C4C4C4"/>
<path d="M29.4449 4.41406L26.2413 12.161H22.8335L19.627 4.41406H23.0081L24.6084 8.56359L26.3271 4.41406H29.4449Z" fill="#C4C4C4"/>
<path d="M38.4561 9.03233H32.9333C33.164 9.62471 33.7172 9.93816 34.5336 9.93816C35.1421 9.95445 35.735 9.74936 36.1961 9.36303L37.9147 11.0481C37.1427 11.8677 36.0186 12.2933 34.4331 12.2933C31.5045 12.2933 29.6113 10.5679 29.6113 8.26742C29.6113 5.91515 31.5489 4.25879 34.1254 4.25879C36.4919 4.25879 38.5093 5.64772 38.5093 8.26742C38.5093 8.50609 38.4827 8.80516 38.4561 9.03233ZM32.8741 7.47662H35.4358C35.3816 7.18475 35.2237 6.92067 34.9896 6.7305C34.7555 6.54032 34.4601 6.43614 34.155 6.43614C33.8499 6.43614 33.5545 6.54032 33.3204 6.7305C33.0863 6.92067 32.9283 7.18475 32.8741 7.47662Z" fill="#C4C4C4"/>
<path d="M39.8398 0H43.1322V12.161H39.8398V0Z" fill="#C4C4C4"/>
<path d="M44.8828 4.41406H48.1752V12.161H44.8828V4.41406Z" fill="#C4C4C4"/>
<path d="M49.5039 8.28182C49.5039 5.92956 51.4415 4.27319 54.1363 4.27319C56.8312 4.27319 58.7687 5.92956 58.7687 8.28182C58.7687 10.6341 56.8459 12.3077 54.1363 12.3077C51.4267 12.3077 49.5039 10.6398 49.5039 8.28182ZM55.4201 8.28182C55.4201 7.27535 54.8522 6.76636 54.1245 6.76636C53.3968 6.76636 52.8288 7.27535 52.8288 8.28182C52.8288 9.28829 53.3968 9.80878 54.1245 9.80878C54.8522 9.80878 55.432 9.28542 55.432 8.28182H55.4201Z" fill="#C4C4C4"/>
<path d="M48.1752 0H44.8828V3.20058H48.1752V0Z" fill="#C4C4C4"/>
<path d="M68.4154 0H65.123V3.20058H68.4154V0Z" fill="#C4C4C4"/>
<path d="M71.7084 3.20068H68.416V6.40126H71.7084V3.20068Z" fill="#C4C4C4"/>
<path d="M74.9994 6.40112H71.707V9.6017H74.9994V6.40112Z" fill="#C4C4C4"/>
<path d="M71.7084 9.60181H68.416V12.8024H71.7084V9.60181Z" fill="#C4C4C4"/>
<path d="M68.4154 12.7993H65.123V15.9999H68.4154V12.7993Z" fill="#C4C4C4"/>
</g>
<defs>
<clipPath id="clip0">
<rect width="75" height="16" fill="white"/>
</clipPath>
</defs>
</svg>
