<svg width="111" height="23" viewBox="0 0 111 23" fill="none" xmlns="http://www.w3.org/2000/svg">
<path d="M13.5718 0V17.4815H8.92676V16.5638C8.21314 17.3161 7.17555 17.684 5.69141 17.684C2.6268 17.684 0 15.4849 0 11.8968C0 8.30877 2.6268 6.1427 5.69141 6.1427C6.98292 6.1427 7.97673 6.4486 8.68597 7.10173V0H13.5718ZM8.75601 11.9051C8.75601 10.4583 7.91544 9.72664 6.83845 9.72664C5.76146 9.72664 4.92088 10.4583 4.92088 11.9051C4.92088 13.3519 5.76146 14.1001 6.83845 14.1001C7.91544 14.1001 8.75601 13.3478 8.75601 11.9051Z" fill="white"/>
<path d="M28.6327 12.984H20.4414C20.7873 13.8356 21.606 14.2861 22.8143 14.2861C23.7137 14.3101 24.5899 14.0152 25.2704 13.4594L27.814 15.8817C26.6713 17.0598 25.0121 17.6716 22.6654 17.6716C18.3312 17.6716 15.5293 15.1914 15.5293 11.8844C15.5293 8.50306 18.3969 6.12204 22.2101 6.12204C25.7125 6.12204 28.6983 8.11862 28.6983 11.8844C28.6983 12.2275 28.6546 12.6574 28.6327 12.984ZM20.3582 10.7477H24.1496C24.0694 10.3281 23.8356 9.9485 23.4891 9.67512C23.1426 9.40174 22.7054 9.25198 22.2539 9.25198C21.8024 9.25198 21.3652 9.40174 21.0187 9.67512C20.6722 9.9485 20.4385 10.3281 20.3582 10.7477Z" fill="white"/>
<path d="M43.5794 6.34526L38.8381 17.4815H33.7946L29.0488 6.34526H34.0529L36.4214 12.3102L38.965 6.34526H43.5794Z" fill="white"/>
<path d="M56.9145 12.984H48.7407C49.0822 13.8356 49.9009 14.2861 51.1092 14.2861C52.0098 14.3096 52.8872 14.0147 53.5697 13.4594L56.1133 15.8817C54.9706 17.0598 53.307 17.6716 50.9604 17.6716C46.6261 17.6716 43.8242 15.1914 43.8242 11.8844C43.8242 8.50306 46.6918 6.12204 50.5051 6.12204C54.0075 6.12204 56.9933 8.11862 56.9933 11.8844C56.9933 12.2275 56.9539 12.6574 56.9145 12.984ZM48.6532 10.7477H52.4445C52.3643 10.3281 52.1305 9.9485 51.784 9.67512C51.4376 9.40174 51.0004 9.25198 50.5488 9.25198C50.0973 9.25198 49.6601 9.40174 49.3136 9.67512C48.9671 9.9485 48.7334 10.3281 48.6532 10.7477Z" fill="white"/>
<path d="M58.9629 0H63.8356V17.4815H58.9629V0Z" fill="white"/>
<path d="M66.4277 6.34526H71.3005V17.4815H66.4277V6.34526Z" fill="white"/>
<path d="M73.2656 11.9051C73.2656 8.52372 76.1332 6.1427 80.1216 6.1427C84.11 6.1427 86.9776 8.52372 86.9776 11.9051C86.9776 15.2865 84.1319 17.6923 80.1216 17.6923C76.1113 17.6923 73.2656 15.2948 73.2656 11.9051ZM82.0217 11.9051C82.0217 10.4583 81.1811 9.72663 80.1041 9.72663C79.0271 9.72663 78.1865 10.4583 78.1865 11.9051C78.1865 13.3519 79.0271 14.1001 80.1041 14.1001C81.1811 14.1001 82.0392 13.3478 82.0392 11.9051H82.0217Z" fill="white"/>
<path d="M71.3005 0H66.4277V4.60083H71.3005V0Z" fill="white"/>
<path d="M101.254 0H96.3809V4.60083H101.254V0Z" fill="#D44ED6"/>
<path d="M106.127 4.60083H101.254V9.20166H106.127V4.60083Z" fill="#D44ED6"/>
<path d="M111 9.20166H106.127V13.8025H111V9.20166Z" fill="#D44ED6"/>
<path d="M106.127 13.8025H101.254V18.4033H106.127V13.8025Z" fill="#D44ED6"/>
<path d="M101.254 18.3992H96.3809V23H101.254V18.3992Z" fill="#D44ED6"/>
</svg>
