<svg width="32" height="32" viewBox="0 0 32 32" fill="none" xmlns="http://www.w3.org/2000/svg">
<path d="M16.1692 24.5C20.2198 24.5 18.7755 21.9357 19.0882 21.1983C19.0835 20.6477 19.0788 20.118 19.0975 19.796C19.3542 19.8683 19.9597 20.1752 21.2103 21.3908C23.1412 23.3392 23.6347 24.5 25.1945 24.5H28.0657C28.9757 24.5 29.4493 24.1232 29.6862 23.807C29.9148 23.5013 30.1388 22.9647 29.8938 22.1293C29.2533 20.118 25.5177 16.6448 25.2855 16.2785C25.3205 16.2108 25.3765 16.121 25.4057 16.0743H25.4033C26.1407 15.1002 28.9547 10.8838 29.3688 9.19683C29.37 9.1945 29.3712 9.191 29.3712 9.1875C29.5952 8.4175 29.3898 7.91817 29.1775 7.63583C28.8578 7.2135 28.3492 7 27.662 7H24.7908C23.8295 7 23.1003 7.48417 22.7317 8.36733C22.1145 9.9365 20.3808 13.1635 19.0812 14.3057C19.0415 12.6875 19.0683 11.452 19.0893 10.5338C19.1313 8.743 19.2667 7 17.4082 7H12.8955C11.7312 7 10.617 8.27167 11.8233 9.78133C12.878 11.1043 12.2025 11.8417 12.43 15.512C11.5433 14.5612 9.966 11.9933 8.85067 8.7115C8.538 7.82367 8.06433 7.00117 6.73083 7.00117H3.85967C2.69533 7.00117 2 7.63583 2 8.69867C2 11.0857 7.28383 24.5 16.1692 24.5ZM6.73083 8.75117C6.984 8.75117 7.00967 8.75117 7.1975 9.28433C8.33967 12.6478 10.9017 17.6248 12.773 17.6248C14.1788 17.6248 14.1788 16.184 14.1788 15.6415L14.1777 11.3225C14.1007 9.89333 13.5803 9.18167 13.2385 8.75L17.3312 8.75467C17.3335 8.7745 17.3078 13.5322 17.3428 14.6848C17.3428 16.3217 18.6425 17.2597 20.6713 15.2063C22.8122 12.7902 24.2927 9.17817 24.3522 9.03117C24.4397 8.82117 24.5155 8.75 24.7908 8.75H27.662H27.6737C27.6725 8.7535 27.6725 8.757 27.6713 8.7605C27.4088 9.9855 24.8177 13.8892 23.9508 15.1013C23.9368 15.12 23.924 15.1398 23.9112 15.1597C23.5297 15.7827 23.2193 16.471 23.9637 17.4393H23.9648C24.0325 17.521 24.2087 17.7123 24.4653 17.9783C25.2633 18.802 28.0003 21.6183 28.243 22.7383C28.082 22.764 27.907 22.7453 25.1945 22.7512C24.617 22.7512 24.1655 21.8878 22.4423 20.1495C20.893 18.6422 19.8873 18.0262 18.9715 18.0262C17.1935 18.0262 17.323 19.4693 17.3393 21.2147C17.3452 23.107 17.3335 22.5085 17.3463 22.6275C17.2425 22.6683 16.945 22.75 16.1692 22.75C8.76667 22.75 3.946 11.0005 3.7605 8.75467C3.82467 8.74883 4.70783 8.75233 6.73083 8.75117Z" fill="#A9A9A9"/>
</svg>
